<svg width="44" height="44" viewBox="0 0 44 44" fill="none" xmlns="http://www.w3.org/2000/svg">
<rect width="44" height="44" rx="22" fill="#4C2A0C" fill-opacity="0.3"/>
<path fill-rule="evenodd" clip-rule="evenodd" d="M19.3417 15.3417C19.7973 14.8861 20.536 14.8861 20.9916 15.3417L26.825 21.175C27.2806 21.6307 27.2806 22.3693 26.825 22.825L20.9916 28.6583C20.536 29.1139 19.7973 29.1139 19.3417 28.6583C18.8861 28.2027 18.8861 27.464 19.3417 27.0084L24.3501 22L19.3417 16.9916C18.8861 16.536 18.8861 15.7973 19.3417 15.3417Z" fill="#4C2A0C"/>
<path fill-rule="evenodd" clip-rule="evenodd" d="M18.9882 14.9882C19.639 14.3373 20.6943 14.3373 21.3452 14.9882L27.1785 20.8215C27.8294 21.4724 27.8294 22.5276 27.1785 23.1785L21.3452 29.0118C20.6943 29.6627 19.639 29.6627 18.9882 29.0118C18.3373 28.361 18.3373 27.3057 18.9882 26.6548L23.643 22L18.9882 17.3452C18.3373 16.6943 18.3373 15.639 18.9882 14.9882ZM20.6381 15.6953C20.3777 15.4349 19.9556 15.4349 19.6953 15.6953C19.4349 15.9556 19.4349 16.3777 19.6953 16.6381L24.7036 21.6464C24.7974 21.7402 24.8501 21.8674 24.8501 22C24.8501 22.1326 24.7974 22.2598 24.7036 22.3536L19.6953 27.3619C19.4349 27.6223 19.4349 28.0444 19.6953 28.3047C19.9556 28.5651 20.3777 28.5651 20.6381 28.3047L26.4714 22.4714C26.7318 22.2111 26.7318 21.7889 26.4714 21.5286L20.6381 15.6953Z" fill="#4C2A0C"/>
</svg>
